<?xml version="1.0" encoding="utf-8"?>
<!-- Generator: Adobe Illustrator 26.2.1, SVG Export Plug-In . SVG Version: 6.00 Build 0)  -->
<svg version="1.1" id="Camada_1" xmlns="http://www.w3.org/2000/svg" xmlns:xlink="http://www.w3.org/1999/xlink" x="0px" y="0px"
	 viewBox="0 0 180 180" style="enable-background:new 0 0 180 180;" xml:space="preserve">
<style type="text/css">
	.st0{fill:#E4CEFB;}
	.st1{fill:#FFFFFF;}
	.st2{fill:#865ABA;}
	.st3{fill:#C4CBD2;}
	.st4{fill:#9EA7AF;}
	.st5{fill:#B1ADC4;}
	.st6{fill:#918EA6;}
	.st7{fill:#E5E8EC;}
	.st8{fill:#C5CBD2;}
	.st9{fill:#CDC6DA;}
	.st10{fill:#AF80DE;}
	.st11{fill:#145693;}
	.st12{fill:#C55651;}
</style>
<g id="_x37_fVPgm.tif">
	
		<image style="overflow:visible;" width="468" height="1168" id="Layer_0" xlink:href="AA20C726F24C099F.png"  transform="matrix(0.1588 0 0 0.1588 -143.0177 -11.5241)">
	</image>
</g>
<g>
	<path class="st0" d="M128.6,52.4c13.8,7.7,23.3-1.5,32.4,6.9c10.1,9.2,7,28.3,4.1,45.7c-2.2,13.6-3.9,24-11.9,33.8
		c-8.4,10.5-18.8,14-37.9,20.1c-29.3,9.4-45.6,14.6-62.6,6.9c-13.2-6-19.9-16.8-27.4-28.8c-6.9-11.1-20.2-32.3-12.8-49.3
		c4.7-10.9,12.6-7.9,23.3-20.6c16.9-20,6.3-38.2,21-50.7C68,6.9,87.8,5.7,100.3,13.2C116.8,23.1,111.1,42.8,128.6,52.4z"/>
	<polygon class="st1" points="68.3,150.5 111.9,150.5 115.3,122.5 70.2,121.4 65.5,127.2 	"/>
	<path class="st2" d="M91.5,29.2c0.2,0.4,0.7,0.3,0.9,0.5c-0.2,0.2-0.3,0.3-0.5,0.5c-2.6,1.9-3.5,4.7-2.3,7.6
		c0.6,1.4,1.6,2.5,2.9,3.3c-0.2,0.2-0.4,0.3-0.6,0.5c-1.2,0-2.4,0-3.5,0c-1.3-0.8-2.6-1.4-3.5-2.7c-2.1-3.4-0.8-7.6,2.9-9.2
		c0.3-0.1,0.7-0.1,0.9-0.5C89.6,29.2,90.6,29.2,91.5,29.2z"/>
	<path class="st3" d="M126.4,93.2c0,2,0,3.9,0,5.9c0,2.3-1.5,3.8-3.8,3.8c-8.1,0-16.3,0-24.4,0c-3.4,0-6.8,0-10.2,0c-2,0-4,0-5.9,0
		c-6.2,0-12.5,0-18.7,0c-2.1-1.1-2.6-2.9-2.6-5.1c0-14.6,0-29.1,0-43.7c0-1.7,0.3-3.2,1.9-4.2c0.1-0.1,0.2-0.3,0.2-0.5
		c7.7,0,15.5,0,23.2,0c0.7,0,1.5,0,2.2,0c1.2,0,2.4,0,3.6,0c10,0,20,0,29.9,0c3.2,0,4.5,1.3,4.5,4.5c0,1.8,0,3.6,0,5.4
		C126.4,70.6,126.4,81.9,126.4,93.2z M80.4,88.9c8.4,0,16.9,0,25.3,0c0.4,0,0.8-0.1,1.2-0.2c6.6-1,11.1-6.5,10.8-13.4
		c-0.3-6.2-5.6-11.6-11.9-11.7c-8.4-0.2-16.9,0-25.3,0c-2.6-0.1-5.2-0.2-7.7,0.2c-5.7,1-9.9,6.1-10.1,12.2c-0.2,5.5,3.9,11,9.3,12.4
		C74.6,89.2,77.5,88.9,80.4,88.9z"/>
	<path class="st4" d="M68.3,150.5c-1.7,0-3.3,0-5,0c0-10.5,0-21,0-31.5c0-1.8,0.2-3.5,2-4.5c0.1-0.1,0.1-0.3,0.2-0.4
		c1.6,0,3.3-0.1,4.9-0.1c2.4,0,4.8,0,7.2,0c10.5,0,21,0,31.5,0c3.2,0,6.4,0.1,9.7,0c3.3-0.1,5.3,1.1,5.2,5c0,6.3,0,12.6,0,19
		c0,4.2,0,8.3,0,12.5c-4,0-8,0-12.1,0c0-7,0-14,0-21c0-1.7-1-2.7-2.7-2.7c-12.7,0-25.4,0-38.1,0c-1.7,0-2.7,1-2.7,2.7
		C68.3,136.5,68.3,143.5,68.3,150.5z"/>
	<path class="st5" d="M62.9,49.4c-0.1,0.2-0.1,0.4-0.2,0.5c-1.6,1-1.9,2.5-1.9,4.2c0,14.6,0,29.1,0,43.7c0,2.2,0.6,4,2.6,5.1
		c-1.9,0-3.9,0-5.8,0c-2.2,0-3.7-1.5-3.7-3.8c0-2,0-3.9,0-5.9c0-11.3,0-22.6,0-33.9c0-2,0-3.9,0-5.9c0-2.5,1.5-4,3.9-4
		C59.5,49.4,61.2,49.4,62.9,49.4z"/>
	<path class="st6" d="M65.5,114.1c-0.1,0.1-0.1,0.4-0.2,0.4c-1.8,1-2,2.6-2,4.5c0,10.5,0,21,0,31.5c-2.4,0-4.7,0-7.1,0
		c0-4.2,0-8.5,0-12.7c0-6.3,0-12.6,0-19c0.1-0.6,0.1-1.2,0.2-1.7c0.3-1.8,1.7-2.9,3.8-3C62,114,63.7,114.1,65.5,114.1z"/>
	<path class="st4" d="M53.9,59.3c0,11.3,0,22.6,0,33.9c-1.3,0-2.5,0-3.8,0c-2-0.1-3.5-1.5-3.5-3.5c0-8.9,0-17.7,0-26.6
		c0-2.1,1.6-3.6,3.8-3.7C51.5,59.3,52.7,59.3,53.9,59.3z"/>
	<path class="st4" d="M126.4,93.2c0-11.3,0-22.6,0-33.9c1.4,0.1,2.8-0.2,4.2,0.2c1.7,0.4,2.8,1.7,2.9,3.4c0,8.9,0,17.9,0,26.8
		c0,1.9-1.6,3.3-3.4,3.4C128.8,93.3,127.6,93.2,126.4,93.2z"/>
	<path class="st7" d="M124,138c0-6.3,0-12.6,0-19c1.6,0,3.2,0.1,4.8,0c3.5-0.2,7.2,2.8,7.9,6.2c0.4,2.1,0.5,4.3,0,6.4
		c-0.4,1.7-1.3,3.3-2.8,4.4c-0.3,0.2-0.5,0.5-0.7,0.8c-0.5,0.2-1,0.3-1.4,0.5C129.3,138.4,126.6,137.9,124,138z"/>
	<path class="st8" d="M109.1,114c-10.5,0-21,0-31.5,0c0-1.9-0.4-4,1.1-5.6c1.1,0,2.2-0.1,3.3-0.1c2,0,4,0,6,0c3.4,0,6.8,0,10.2,0
		c2.6,0,5.2,0,7.8,0c2.4,0,3.1,0.7,3.1,3C109.1,112.3,109.1,113.2,109.1,114z"/>
	<path class="st8" d="M124,138c2.6-0.1,5.3,0.4,7.8-0.7c0.5-0.2,1-0.4,1.4-0.5c0,3.7,0,7.3,0,11c0,1.8-0.9,2.7-2.7,2.7
		c-2.2,0-4.4,0-6.6,0C124,146.3,124,142.2,124,138z"/>
	<path class="st9" d="M47,136.8c-0.3-0.6-0.9-0.9-1.3-1.3c-3.4-3.3-3.2-11.3,0.2-14.3c1.6-1.3,3.2-2.2,5.3-2.2c1.5,0,2.9,0,4.4,0
		c-0.8,0.4-1.7,0.7-2.4,1.2c-3.9,2.6-4.3,6.1-3.9,10.6c0.1,1.3,0.7,2.5,1.4,3.7c1.1,1.7,2.8,2.5,4.6,3.3c-1.1,0.5-2.2,0.1-3.3,0.2
		C50.2,138.1,48.6,137.4,47,136.8z"/>
	<path class="st7" d="M55.3,137.8c-1.8-0.7-3.5-1.6-4.6-3.3c-0.8-1.1-1.3-2.3-1.4-3.7c-0.4-4.6,0-8,3.9-10.6
		c0.7-0.5,1.6-0.8,2.4-1.2c0.2-0.3,0.5-0.2,0.7-0.2c0,6.3,0,12.6,0,19C55.9,137.8,55.6,137.8,55.3,137.8z"/>
	<path class="st5" d="M47,136.8c1.6,0.6,3.2,1.3,5,1.2c0,3,0,6,0,9c0,1.6,0.4,2.9,1.9,3.6c-1.4,0-2.8,0-4.2,0c-1.7,0-2.6-1-2.6-2.6
		C47,144.2,47,140.5,47,136.8z"/>
	<path class="st10" d="M92.5,41.1c-1.3-0.8-2.3-1.9-2.9-3.3c-1.1-2.9-0.2-5.7,2.3-7.6c0.2-0.1,0.3-0.3,0.5-0.5
		c2.5,1.2,3.9,3.1,3.8,5.9C96.2,38.3,94.9,40.1,92.5,41.1z"/>
	<path class="st4" d="M98.2,108.4c-3.4,0-6.8,0-10.2,0c0-1.8,0-3.6,0-5.4c3.4,0,6.8,0,10.2,0C98.2,104.7,98.2,106.5,98.2,108.4z"/>
	<path class="st3" d="M53.8,150.5c-1.5-0.7-1.9-2-1.9-3.6c0-3,0-6,0-9c1.1-0.1,2.2,0.3,3.3-0.2c0.3,0,0.6,0,1,0c0,4.2,0,8.5,0,12.7
		C55.5,150.5,54.7,150.5,53.8,150.5z"/>
	<path class="st5" d="M78.7,108.5c-1.5,1.6-1.1,3.6-1.1,5.6c-2.4,0-4.8,0-7.2,0c0-1,0-2,0-2.9c0-1.8,0.7-2.6,2.5-2.7
		C74.9,108.4,76.8,108.4,78.7,108.5z"/>
	<path class="st6" d="M88,103c0,1.8,0,3.6,0,5.4c-2,0-4,0-6,0c0-1.8,0-3.6,0-5.4C84,102.9,86,102.9,88,103z"/>
	<path class="st11" d="M91.9,49.3c-1.2,0-2.4,0-3.6,0c0-2.6,0-5.2,0-7.7c1.2,0,2.4,0,3.5,0C91.9,44.2,91.9,46.8,91.9,49.3z"/>
	<path class="st10" d="M80.4,63.6c8.4,0,16.9-0.1,25.3,0c6.4,0.1,11.6,5.5,11.9,11.7c0.3,6.8-4.1,12.4-10.8,13.4
		c-0.4,0.1-0.8,0.2-1.2,0.2c-8.4,0-16.9,0-25.3,0c-2.5-0.7-4.8-1.5-6.7-3.4c-1.6-1.7-3.1-3.4-3.5-5.8c0.3,0.3,0.7,0.5,1,0.8
		c1.7,1,3.5,1.1,5.2,0c1.8-1.1,2.5-2.8,2.2-4.9c-0.3-1.9-1.3-3.3-3.2-3.9c-2-0.7-3.8-0.2-5.3,1.2c0-0.3,0-0.6,0.1-0.8
		c1-3,3-5.2,5.7-6.8C77.4,64.5,78.9,64.1,80.4,63.6z M106.4,81.1c2.7,0,4.9-2.1,5-4.8c0.1-2.6-2.2-4.9-4.9-4.9c-2.7,0-5,2.2-5,4.9
		C101.5,79,103.7,81.1,106.4,81.1z"/>
	<path class="st2" d="M70.2,79.6c0.3,2.4,1.8,4.2,3.5,5.8c1.9,1.9,4.2,2.7,6.7,3.4c-2.9,0-5.7,0.3-8.6-0.4
		c-5.4-1.4-9.6-6.9-9.3-12.4C62.8,70,67,64.8,72.6,63.9c2.5-0.4,5.2-0.4,7.7-0.2c-1.5,0.4-3,0.8-4.4,1.7c-2.6,1.6-4.6,3.8-5.7,6.8
		c-0.1,0.3-0.1,0.5-0.1,0.8C68.6,75.1,68.6,77.4,70.2,79.6z"/>
	<path d="M70.2,79.6c-1.7-2.3-1.7-4.5,0-6.8c1.6-1.4,3.3-1.9,5.3-1.2c1.8,0.6,2.9,2,3.2,3.9c0.3,2-0.4,3.8-2.2,4.9
		c-1.7,1-3.5,1-5.2,0C70.9,80.2,70.6,79.9,70.2,79.6z"/>
	<path d="M106.4,81.1c-2.7,0-4.9-2.2-4.9-4.9c0-2.7,2.2-4.9,5-4.9c2.7,0,4.9,2.3,4.9,4.9C111.3,79,109.1,81.1,106.4,81.1z"/>
	<path d="M100.9,93.8c-0.8,1-3.4,3.9-7.8,4.9c-6.3,1.4-11.1-2.4-11.7-2.9"/>
	<path class="st12" d="M81.6,141c0-1,0-1.9,0-2.9c0-0.5,0.2-0.6,0.6-0.6c1.6,0,3.2,0,4.7,0c0.5,0,0.6-0.1,0.6-0.6c0-1.6,0-3.2,0-4.7
		c0-0.5,0.1-0.6,0.6-0.6c2,0,3.9,0,5.9,0c0.5,0,0.6,0.2,0.6,0.6c0,1.6,0,3.2,0,4.7c0,0.5,0.1,0.6,0.6,0.6c1.6,0,3.2,0,4.7,0
		c0.5,0,0.6,0.1,0.6,0.6c0,2,0,3.9,0,5.9c0,0.5-0.2,0.6-0.6,0.6c-1.6,0-3.2,0-4.7,0c-0.5,0-0.6,0.1-0.6,0.6c0,1.6,0,3.2,0,4.7
		c0,0.5-0.1,0.6-0.6,0.6c-2,0-3.9,0-5.9,0c-0.5,0-0.6-0.2-0.6-0.6c0-1.6,0-3.2,0-4.7c0-0.5-0.1-0.6-0.6-0.6c-1.6,0-3.2,0-4.7,0
		c-0.5,0-0.6-0.1-0.6-0.6C81.6,143,81.6,142,81.6,141z"/>
</g>
</svg>
