<?xml version="1.0" encoding="utf-8"?>
<!-- Generator: Adobe Illustrator 26.2.1, SVG Export Plug-In . SVG Version: 6.00 Build 0)  -->
<svg version="1.1" id="Camada_1" xmlns="http://www.w3.org/2000/svg" xmlns:xlink="http://www.w3.org/1999/xlink" x="0px" y="0px"
	 viewBox="0 0 180 180" style="enable-background:new 0 0 180 180;" xml:space="preserve">
<style type="text/css">
	.st0{fill:#E8CCFF;}
	.st1{fill:#F0F0F0;}
	.st2{fill:#4D4D4D;}
	.st3{fill:#B87EE4;}
	.st4{fill:#D3D3D3;}
	.st5{fill:#E9CDFF;}
</style>
<g>
	<path class="st0" d="M125.5,52.5c13.8,7.7,23.3-1.5,32.4,6.9c10.1,9.2,7,28.3,4.1,45.7c-2.2,13.6-3.9,24-11.9,33.8
		c-8.4,10.5-18.8,14-37.9,20.1c-29.3,9.4-45.6,14.6-62.6,6.9c-13.2-6-19.9-16.8-27.4-28.8c-6.9-11.1-20.2-32.3-12.8-49.3
		c4.7-10.9,12.6-7.9,23.3-20.6c16.9-20,6.3-38.2,21-50.7c11.1-9.5,30.9-10.7,43.4-3.2C113.7,23.1,108,42.8,125.5,52.5z"/>
	<g>
		<path class="st1" d="M44.9,102.9c0-15.2,0-30.4,0-45.7c0-2.1,0.7-2.8,2.7-2.8c22.1,0,44.3,0,66.4,0c2,0,2.7,0.7,2.7,2.8
			c0,30.5,0,60.9,0,91.4c0,2.1-0.7,2.8-2.8,2.8c-22.1,0-44.2,0-66.2,0c-2.2,0-2.8-0.7-2.8-2.9C44.9,133.4,44.9,118.2,44.9,102.9z
			 M73.3,124.3c0.1-1-0.2-1.3-1.3-1.2c-4.8,0.1-9.7,0-14.5,0c-0.6,0-1,0-1,0.9c0,5,0,10,0,15c0,0.6,0.1,0.8,0.8,0.8
			c5,0,10.1,0,15.1,0c0.6,0,0.8-0.1,0.8-0.7c0-3.1,0-6.2,0-9.3c0.8-1.4,1.9-2.4,2.9-3.6c1.8-2.1,1.8-2.1-0.3-3.7c0,0-0.1,0-0.1-0.1
			c-0.3-0.4-0.5-0.3-0.8,0.1C74.4,123,73.9,123.6,73.3,124.3z M73.3,94.2c0.1-1-0.2-1.3-1.3-1.2c-4.8,0.1-9.7,0-14.5,0
			c-0.6,0-1,0-1,0.9c0,5,0,10,0,15c0,0.6,0.1,0.8,0.8,0.8c5,0,10.1,0,15.1,0c0.6,0,0.8-0.1,0.8-0.7c0-3.1,0-6.2,0-9.3
			c0.8-1.4,1.9-2.4,2.9-3.6c1.8-2.1,1.8-2.1-0.3-3.7c0,0-0.1,0-0.1-0.1c-0.3-0.4-0.5-0.3-0.8,0.1C74.4,93,73.9,93.6,73.3,94.2z
			 M86.9,81.3c1.5,0,3.1,0,4.6,0c1.1,0,1.8-0.6,1.8-1.7c0-2.2,0-4.3,0-6.5c0-1.2-0.7-1.8-1.8-1.8c-1.4,0-2.7,0-4.1,0
			c-2.5,0-2.5,0-2.5-2.5c0-0.7,0.3-0.9,0.9-0.8c1.7,0,3.3,0,5,0c2.6,0,2.5,0,2.5-2.6c0-0.6-0.2-0.8-0.8-0.7c-3,0-6.1,0-9.1,0
			c-1.2,0-1.8,0.6-1.8,1.8c0,2.1,0,4.2,0,6.4c0,1.2,0.6,1.8,1.9,1.9c1.3,0,2.6,0,4,0c2.7,0,2.6,0,2.5,2.7c0,0.6-0.2,0.7-0.7,0.7
			c-1.7,0-3.4,0-5.1,0c-2.7,0-2.6,0-2.5,2.7c0,0.6,0.2,0.7,0.7,0.7C83.9,81.2,85.4,81.3,86.9,81.3z M68.3,72.8c0,2.1,0,4.2,0,6.4
			c0,1.4,0.6,2,2,2c1.8,0,3.7,0,5.5,0c2.7,0,2.6,0,2.5-2.7c0-0.5-0.2-0.7-0.7-0.7c-1.2,0-2.4,0-3.5,0c-2.6,0-2.5,0-2.5-2.6
			c0-0.7,0.3-0.8,0.9-0.8c1.1,0,2.2,0,3.3,0c2.7,0,2.6,0,2.5-2.7c0-0.6-0.2-0.7-0.7-0.7c-1.1,0-2.3,0-3.4,0c-2.7,0-2.6,0-2.5-2.6
			c0-0.6,0.2-0.7,0.7-0.7c1.2,0,2.4,0,3.5,0c2.5,0,2.4,0,2.4-2.4c0-0.7-0.2-1-0.9-0.9c-2.4,0-4.7,0-7.1,0c-1.4,0-2,0.6-2,2
			C68.3,68.7,68.3,70.8,68.3,72.8z M59.9,74.6c0-1.4,0-2.8,0-4.2c0-2.5,0-2.5,2.5-2.5c2.5,0,2.5,0,2.5-2.5c0-0.7-0.2-0.9-0.9-0.9
			c-3.3,0-6.7,0-10,0c-2.6,0-2.6,0-2.5,2.7c0,0.6,0.2,0.7,0.7,0.7c1.1,0,2.3,0,3.4,0c0.7,0,0.9,0.2,0.9,0.9c0,3.3,0,6.7,0,10
			c0,2.6,0,2.5,2.6,2.5c0.7,0,0.8-0.3,0.8-0.9C59.9,78.5,59.9,76.5,59.9,74.6z M105,74.7c0-1.4,0-2.9,0-4.3c0-2.5,0-2.5,2.5-2.5
			c2.5,0,2.5,0,2.5-2.5c0-0.7-0.2-0.9-0.9-0.9c-3.3,0-6.7,0-10,0c-2.6,0-2.6,0-2.5,2.7c0,0.6,0.2,0.7,0.7,0.7c1.1,0,2.3,0,3.4,0
			c0.7,0,0.9,0.2,0.9,0.9c0,3.3,0,6.7,0,10c0,2.6,0,2.5,2.6,2.5c0.7,0,0.8-0.3,0.8-0.9C105,78.5,105,76.6,105,74.7z M94.2,94.6
			c3.4,0,6.9,0,10.3,0c2.2,0,2.2,0,2.2-2.3c0-0.9-0.3-1.1-1.1-1.1c-7.2,0-14.5,0-21.7,0c-2.3,0-2.3,0-2.3,2.3c0,0.8,0.2,1.1,1.1,1
			C86.5,94.6,90.3,94.6,94.2,94.6z M94.1,103c3.5,0,7,0,10.4,0c2.2,0,2.1,0,2.2-2.1c0-1-0.3-1.3-1.3-1.2c-7.2,0-14.3,0-21.5,0
			c-2.4,0-2.3,0-2.3,2.4c0,0.8,0.3,1,1,1C86.5,103,90.3,103,94.1,103z M94.1,111.4c3.5,0,7,0,10.4,0c2.2,0,2.1,0,2.2-2.2
			c0-1-0.3-1.2-1.2-1.1c-7.2,0-14.4,0-21.6,0c-2.4,0-2.3,0-2.3,2.4c0,0.8,0.3,1,1,1C86.5,111.3,90.3,111.4,94.1,111.4z M94.1,124.7
			c3.5,0,7,0,10.4,0c2.1,0,2.1,0,2.2-2.1c0-1-0.3-1.2-1.3-1.2c-7.2,0-14.3,0-21.5,0c-2.3,0-2.3,0-2.3,2.3c0,0.9,0.3,1.1,1.1,1.1
			C86.5,124.7,90.3,124.7,94.1,124.7z M94.2,129.7c-3.5,0-7,0-10.4,0c-2.2,0-2.1,0-2.2,2.1c0,1,0.3,1.3,1.3,1.2c7.2,0,14.3,0,21.5,0
			c2.3,0,2.3,0,2.3-2.3c0-0.9-0.3-1.1-1.1-1.1C101.8,129.8,98,129.7,94.2,129.7z M94.1,141.4c3.5,0,7,0,10.4,0c2.2,0,2.1,0,2.2-2.2
			c0-0.9-0.3-1.2-1.2-1.1c-7.2,0-14.4,0-21.6,0c-2.4,0-2.3,0-2.3,2.4c0,0.8,0.3,1,1,1C86.5,141.4,90.3,141.4,94.1,141.4z"/>
		<path class="st2" d="M125.1,131.4c0-0.2,0-0.5,0-0.7c0-18.5,0-36.9,0-55.4c0-0.2,0-0.5,0-0.7c3.3,0,6.6,0,10,0c0,0.2,0,0.5,0,0.7
			c0,18.5,0,36.9,0,55.4c0,0.2,0,0.5,0,0.7C131.8,131.4,128.4,131.4,125.1,131.4z"/>
		<path class="st3" d="M135.1,74.6c-3.3,0-6.6,0-10,0c0-3.4-0.1-6.9,0-10.3c0.1-2.6,2.3-4.7,4.9-4.7c2.7,0,5,2.1,5,4.7
			C135.2,67.7,135.1,71.1,135.1,74.6z"/>
		<path class="st3" d="M125.1,131.4c3.3,0,6.6,0,10,0c0.2,1.3-0.2,2.5-0.5,3.7c-0.9,3.5-1.8,7-2.6,10.5c-0.2,0.7-0.4,0.9-1.1,0.9
			c-2.5,0-2.5,0-3.1-2.4c-0.8-3.3-1.6-6.6-2.5-9.9C125.1,133.3,125,132.4,125.1,131.4z"/>
		<path class="st3" d="M73.2,99.7c0,3.1,0,6.2,0,9.3c0,0.6-0.2,0.7-0.8,0.7c-5,0-10.1,0-15.1,0c-0.7,0-0.8-0.2-0.8-0.8
			c0-5,0-10,0-15c0-0.8,0.3-0.9,1-0.9c4.8,0,9.7,0,14.5,0c1,0,1.4,0.3,1.3,1.2c-2.1,2.5-4.2,4.9-6.2,7.4c-0.5,0.5-0.8,0.5-1.2,0
			c-0.8-0.9-1.7-1.7-2.6-2.6c-0.3-0.4-0.7-0.5-1-0.1c-0.5,0.8-1.7,1-1.6,2.2c0,0.1,0.1,0.2,0.2,0.2c1.5,1.5,3,3,4.5,4.5
			c0.8,0.7,1.8,0.7,2.5-0.1c0.6-0.6,1.1-1.3,1.6-1.9C70.8,102.5,71.8,100.9,73.2,99.7z"/>
		<path class="st3" d="M73.2,129.8c0,3.1,0,6.2,0,9.3c0,0.6-0.2,0.7-0.8,0.7c-5,0-10.1,0-15.1,0c-0.7,0-0.8-0.2-0.8-0.8
			c0-5,0-10,0-15c0-0.8,0.3-0.9,1-0.9c4.8,0,9.7,0,14.5,0c1,0,1.4,0.3,1.3,1.2c-2.1,2.5-4.2,4.9-6.2,7.4c-0.5,0.5-0.8,0.5-1.2,0
			c-0.8-0.9-1.7-1.7-2.6-2.6c-0.3-0.4-0.7-0.5-1-0.1c-0.5,0.8-1.7,1-1.6,2.2c0,0.1,0.1,0.2,0.2,0.2c1.5,1.5,3,3,4.5,4.5
			c0.8,0.7,1.8,0.7,2.5-0.1c0.6-0.6,1.1-1.3,1.6-1.9C70.8,132.6,71.8,131,73.2,129.8z"/>
		<path class="st3" d="M86.9,81.3c-1.5,0-3.1,0-4.6,0c-0.5,0-0.7-0.1-0.7-0.7c-0.1-2.7-0.1-2.7,2.5-2.7c1.7,0,3.4,0,5.1,0
			c0.5,0,0.7-0.1,0.7-0.7c0.1-2.7,0.1-2.7-2.5-2.7c-1.3,0-2.6,0-4,0c-1.2,0-1.9-0.6-1.9-1.9c0-2.1,0-4.2,0-6.4
			c0-1.2,0.7-1.8,1.8-1.8c3,0,6.1,0,9.1,0c0.6,0,0.8,0.1,0.8,0.7c0.1,2.6,0.1,2.6-2.5,2.6c-1.7,0-3.3,0-5,0c-0.6,0-0.9,0.1-0.9,0.8
			c0,2.5,0,2.5,2.5,2.5c1.4,0,2.7,0,4.1,0c1.2,0,1.8,0.6,1.8,1.8c0,2.2,0,4.3,0,6.5c0,1.1-0.7,1.7-1.8,1.7
			C90,81.3,88.5,81.3,86.9,81.3z"/>
		<path class="st3" d="M68.3,72.8c0-2.1,0-4.2,0-6.3c0-1.4,0.6-2,2-2c2.4,0,4.7,0,7.1,0c0.7,0,0.9,0.2,0.9,0.9c0,2.4,0,2.4-2.4,2.4
			c-1.2,0-2.4,0-3.5,0c-0.5,0-0.7,0.2-0.7,0.7c-0.1,2.6-0.1,2.6,2.5,2.6c1.1,0,2.3,0,3.4,0c0.5,0,0.7,0.1,0.7,0.7
			c0.1,2.7,0.1,2.7-2.5,2.7c-1.1,0-2.2,0-3.3,0c-0.6,0-0.9,0.1-0.9,0.8c0,2.6-0.1,2.6,2.5,2.6c1.2,0,2.4,0,3.5,0
			c0.5,0,0.6,0.2,0.7,0.7c0.2,2.7,0.2,2.7-2.5,2.7c-1.8,0-3.7,0-5.5,0c-1.4,0-2-0.6-2-2C68.3,77.1,68.3,75,68.3,72.8z"/>
		<path class="st3" d="M59.9,74.6c0,1.9,0,3.9,0,5.8c0,0.6-0.1,0.9-0.8,0.9c-2.6,0-2.6,0.1-2.6-2.5c0-3.3,0-6.7,0-10
			c0-0.7-0.1-0.9-0.9-0.9c-1.1,0.1-2.3,0-3.4,0c-0.5,0-0.7-0.1-0.7-0.7c-0.1-2.7-0.1-2.7,2.5-2.7c3.3,0,6.7,0,10,0
			c0.7,0,0.9,0.2,0.9,0.9c0,2.5,0,2.5-2.5,2.5c-2.5,0-2.5,0-2.5,2.5C59.9,71.8,59.9,73.2,59.9,74.6z"/>
		<path class="st3" d="M105,74.7c0,1.9,0,3.8,0,5.7c0,0.6-0.1,0.9-0.8,0.9c-2.6,0-2.6,0.1-2.6-2.5c0-3.3,0-6.7,0-10
			c0-0.7-0.2-0.9-0.9-0.9c-1.1,0.1-2.3,0-3.4,0c-0.5,0-0.7-0.1-0.7-0.7c-0.1-2.7-0.1-2.7,2.5-2.7c3.3,0,6.7,0,10,0
			c0.7,0,0.9,0.2,0.9,0.9c0,2.5,0,2.5-2.5,2.5c-2.5,0-2.5,0-2.5,2.5C105,71.8,105,73.3,105,74.7z"/>
		<path class="st4" d="M94.2,94.6c-3.8,0-7.7,0-11.5,0c-0.8,0-1.1-0.2-1.1-1c0-2.3,0-2.3,2.3-2.3c7.2,0,14.5,0,21.7,0
			c0.9,0,1.1,0.2,1.1,1.1c0,2.3,0,2.3-2.2,2.3C101,94.6,97.6,94.6,94.2,94.6z"/>
		<path class="st4" d="M94.1,103c-3.8,0-7.7,0-11.5,0c-0.8,0-1-0.2-1-1c0-2.4,0-2.4,2.3-2.4c7.2,0,14.3,0,21.5,0
			c1,0,1.3,0.2,1.3,1.2c-0.1,2.1,0,2.1-2.2,2.1C101.1,103,97.6,103,94.1,103z"/>
		<path class="st4" d="M94.1,111.4c-3.8,0-7.7,0-11.5,0c-0.8,0-1-0.2-1-1c0-2.4,0-2.4,2.3-2.4c7.2,0,14.4,0,21.6,0
			c0.9,0,1.2,0.2,1.2,1.1c-0.1,2.2,0,2.2-2.2,2.2C101.1,111.4,97.6,111.4,94.1,111.4z"/>
		<path class="st4" d="M94.1,124.7c-3.8,0-7.6,0-11.4,0c-0.8,0-1.2-0.2-1.1-1.1c0-2.3,0-2.3,2.3-2.3c7.2,0,14.3,0,21.5,0
			c1,0,1.3,0.2,1.3,1.2c-0.1,2.1,0,2.1-2.2,2.1C101.1,124.7,97.6,124.7,94.1,124.7z"/>
		<path class="st4" d="M94.2,129.7c3.8,0,7.6,0,11.4,0c0.8,0,1.2,0.2,1.1,1.1c0,2.3,0,2.3-2.3,2.3c-7.2,0-14.3,0-21.5,0
			c-1,0-1.3-0.2-1.3-1.2c0.1-2.1,0-2.1,2.2-2.1C87.3,129.7,90.7,129.7,94.2,129.7z"/>
		<path class="st4" d="M94.1,141.4c-3.8,0-7.7,0-11.5,0c-0.8,0-1-0.2-1-1c0-2.4,0-2.4,2.3-2.4c7.2,0,14.4,0,21.6,0
			c0.9,0,1.2,0.2,1.2,1.1c-0.1,2.2,0,2.2-2.2,2.2C101.1,141.4,97.6,141.4,94.1,141.4z"/>
		<path class="st5" d="M73.2,99.7c-1.4,1.2-2.5,2.8-3.7,4.2c-0.6,0.6-1.1,1.3-1.6,1.9c-0.7,0.8-1.7,0.9-2.5,0.1
			c-1.5-1.5-3-3-4.5-4.5c-0.1-0.1-0.2-0.1-0.2-0.2c-0.2-1.2,1.1-1.5,1.6-2.2c0.3-0.5,0.7-0.3,1,0.1c0.9,0.9,1.7,1.7,2.6,2.6
			c0.5,0.5,0.8,0.6,1.2,0c2.1-2.5,4.1-4.9,6.2-7.4c0.6-0.6,1.1-1.2,1.6-1.9c0.3-0.3,0.5-0.4,0.8-0.1c0,0,0.1,0,0.1,0.1
			C78,94,77.9,94,76.2,96C75.2,97.2,74,98.3,73.2,99.7z"/>
		<path class="st5" d="M73.2,129.8c-1.4,1.2-2.5,2.8-3.7,4.2c-0.6,0.6-1.1,1.3-1.6,1.9c-0.7,0.8-1.7,0.9-2.5,0.1
			c-1.5-1.5-3-3-4.5-4.5c-0.1-0.1-0.2-0.1-0.2-0.2c-0.2-1.2,1.1-1.5,1.6-2.2c0.3-0.5,0.7-0.3,1,0.1c0.9,0.9,1.7,1.7,2.6,2.6
			c0.5,0.5,0.8,0.6,1.2,0c2.1-2.5,4.1-4.9,6.2-7.4c0.6-0.6,1.1-1.2,1.6-1.9c0.3-0.3,0.5-0.4,0.8-0.1c0,0,0.1,0,0.1,0.1
			c2.1,1.7,2.1,1.7,0.3,3.7C75.2,127.3,74,128.4,73.2,129.8z"/>
	</g>
</g>
</svg>
