<?xml version="1.0" encoding="utf-8"?>
<!-- Generator: Adobe Illustrator 26.2.1, SVG Export Plug-In . SVG Version: 6.00 Build 0)  -->
<svg version="1.1" id="Camada_1" xmlns="http://www.w3.org/2000/svg" xmlns:xlink="http://www.w3.org/1999/xlink" x="0px" y="0px"
	 viewBox="0 0 180 180" style="enable-background:new 0 0 180 180;" xml:space="preserve">
<style type="text/css">
	.st0{fill:#E8CCFF;}
	.st1{fill:#B87EE4;}
	.st2{fill:#676767;}
	.st3{fill:#E4E5E2;}
	.st4{fill:#FECB67;}
	.st5{fill:#C2DBAA;}
	.st6{fill:#E4E5E3;}
	.st7{fill:#525352;}
	.st8{fill:#88BF59;}
	.st9{fill:#FBFBFA;}
	.st10{fill:#FEFEFE;}
</style>
<g>
	<path class="st0" d="M127.2,53.5c13.8,7.7,23.3-1.5,32.4,6.9c10.1,9.2,7,28.3,4.1,45.7c-2.2,13.6-3.9,24-11.9,33.8
		c-8.4,10.5-18.8,14-37.9,20.1c-29.3,9.4-45.6,14.6-62.6,6.9c-13.2-6-19.9-16.8-27.4-28.8C17,126.9,3.8,105.7,11.2,88.7
		c4.7-10.9,12.6-7.9,23.3-20.6c16.9-20,6.3-38.2,21-50.7C66.6,8,86.4,6.8,98.9,14.3C115.4,24.2,109.7,43.9,127.2,53.5z"/>
	<g>
		<path class="st1" d="M128.1,64.9c2.1,0.1,4.3-0.2,6.4,0.2c3.1,0.5,5.2,3,5.2,6.3c0,7,0,14,0,21c0,9.4,0,18.8,0,28.2
			c-6.4,0-12.8,0-19.2,0c-0.6,0-0.7-0.4-0.9-0.8c-2.1-5.3-4.2-10.5-6.4-15.8c-2.2-5.5-4.5-11.1-6.7-16.6c-0.2-0.4-0.3-0.8,0.1-1.2
			c3.7-3.6,7.4-7.3,11.1-11c3.3-3.3,6.6-6.5,9.8-9.8C127.8,65.1,127.9,65,128.1,64.9z"/>
		<path class="st2" d="M97.5,136.4c-3.6,1.6-7.4,2.5-11.3,2.4c-3.4-0.1-6.7-0.7-9.8-2.1c-0.3-0.1-0.6-0.2-0.9-0.3
			c-0.1-0.1-0.3-0.1-0.4-0.2c-3.2-1.8-6.1-3.8-8.5-6.7c-0.5-0.6-0.8-1.2-1.4-1.6c-1.6-2.6-2.9-5.3-3.9-8.2c0-0.2,0-0.5-0.1-0.7
			c-1.2-4.9-1-9.8,0.6-14.6c1.3-4,3.7-7.4,6.6-10.4c1.2-0.9,2.4-1.9,3.6-2.8c0.2-0.1,0.5-0.3,0.7-0.4c4.2-2.6,8.7-3.9,13.6-4
			c2.5,0,4.9,0.4,7.2,1c1.3,0.5,2.7,0.9,4,1.5c1.4,0.7,2.7,1.6,4.1,2.3c0.2,0.2,0.3,0.4,0.5,0.5c2.7,2.1,5,4.6,6.8,7.5
			c0.4,0.7,0.6,1.6,1.3,2.1l0,0c0,0.2,0,0.5,0.2,0.6l0,0c0,0.2,0,0.3,0.2,0.4l0,0c0,0.2,0,0.4,0.2,0.5l0,0c0,0.2,0,0.4,0.2,0.5l0,0
			c0,1,0.5,1.8,0.7,2.8c0.6,2.6,0.9,5.3,0.7,8c-0.2,2.1-0.7,4.1-1.1,6.1c-0.6,1.4-1.2,2.8-1.7,4.1c-0.8,1.5-1.7,2.8-2.7,4.2
			c-1,1.1-2.1,2.1-3.1,3.3c-0.3,0.4-1,0.5-1,1.1c-0.2,0.1-0.5,0.1-0.6,0.2C100.7,134.6,99.1,135.5,97.5,136.4z M67.8,117.4
			c0.9,3.9,2.8,7.2,5.9,9.8c0.7,0.8,1.6,1.3,2.4,1.9c3.9,2.3,8.1,3.4,12.6,2.8c2.9-0.4,5.7-1.2,8.1-3c5.7-3.6,8.6-8.8,8.9-15.5
			c0.2-3.6-0.7-7-2.5-10.1c-0.7-1.2-1.3-2.4-2.4-3.2c0-0.1,0-0.3-0.1-0.4c-2.6-2.8-5.8-4.9-9.6-5.7C87,93,83,93.4,79,95
			c-2,0.8-3.8,1.8-5.3,3.4c-1.9,1.4-3.3,3.2-4.2,5.4c-0.2,0.3-0.4,0.5-0.5,0.8c-1,2.2-1.6,4.5-1.8,6.9
			C67.1,113.5,67.3,115.5,67.8,117.4z"/>
		<path class="st1" d="M68.4,93.9c-2.9,3-5.2,6.4-6.6,10.4c-1.6,4.8-1.8,9.7-0.6,14.6c0.1,0.2,0.1,0.5,0.1,0.7
			c-5.3,5.3-10.6,10.6-15.9,15.9c-0.2,0.2-0.4,0.3-0.4,0.6l0,0c-2.1-0.2-4.2-2.2-4.7-4.6c-0.1-0.5-0.2-1-0.2-1.5
			c0-7.6,0-15.2,0-22.7c0-0.2,0-0.3,0-0.5c0.3-0.3,0.7-0.5,1-0.8c7.7-7.7,15.3-15.3,23-23c0.6-0.6,0.8-0.6,1.1,0.3
			C66.2,86.9,67.3,90.4,68.4,93.9z"/>
		<path class="st1" d="M40,104c0-10.7,0-21.3,0-32c0-4.5,2.7-7.1,7.2-7.1c4.1,0,8.1,0,12.2,0c0.1,0.3,0.2,0.6,0.2,1
			c1.3,4.3,2.6,8.7,3.9,13c0.2,0.8,0.3,1.4-0.4,2c-1.5,1.4-2.8,2.9-4.3,4.3c-6,6.1-12,12.1-18.1,18.2C40.6,103.6,40.4,103.9,40,104z
			"/>
		<path class="st3" d="M110.8,103.1C110.8,103.1,110.8,103.1,110.8,103.1c0-0.2,0-0.4-0.2-0.5c0,0,0,0,0,0c0-0.2,0-0.3-0.2-0.4
			c0,0,0,0,0,0c0-0.2,0-0.5-0.2-0.6c0,0,0,0,0,0c0,0,0-0.1,0-0.1c-1.7-4.3-3.4-8.6-5.1-12.9c-0.2-0.4-0.4-0.3-0.6-0.1
			c-0.9,1-1.9,1.9-2.8,2.9c-1.4-0.7-2.7-1.7-4.1-2.3c-1.3-0.6-2.6-1-4-1.5c0.2-0.3,0.5-0.5,0.7-0.8c7-7,14.1-14.1,21.1-21.1
			c0.3-0.3,0.6-0.5,0.7-0.9c0.1,0,0.3,0,0.4,0c0.3,0.3,0.7,0.2,1,0.2c3,0,6.1,0,9.1,0c0.3,0,0.7-0.1,1,0.2c-3.3,3.3-6.5,6.6-9.8,9.8
			c-3.7,3.7-7.4,7.3-11.1,11c-0.4,0.4-0.3,0.8-0.1,1.2c2.2,5.5,4.5,11.1,6.7,16.6c2.1,5.3,4.3,10.5,6.4,15.8
			c0.2,0.4,0.3,0.8,0.9,0.8c6.4,0,12.8,0,19.2,0c0.4,1.4,0.4,2.8,0,4.2c-4.9,0-9.7,0-14.6,0c-5.2,0-10.4,0-15.6,0
			c0.6-1.4,1.2-2.8,1.7-4.1c2.1,0,4.3,0,6.4,0c0-0.4-0.1-0.7-0.2-0.9c-1.4-3.5-2.8-7-4.3-10.6c-0.7-1.8-1.4-3.7-2.3-5.4c0,0,0,0,0,0
			C111,103.4,110.9,103.2,110.8,103.1z M113.3,74.6c-0.1-0.3-0.2-0.5-0.4-0.6c-0.2-0.1-0.4,0-0.6,0.1c-1,1-2,2-3,3
			c-0.3,0.3-0.3,0.6,0,0.9c0.3,0.4,0.6,0.2,0.8-0.1c1-1,2-2,2.9-3C113.1,74.9,113.2,74.8,113.3,74.6z M116.4,71.4
			c0.1,0,0.2-0.1,0.2-0.1c1.1-1.1,2.2-2.2,3.3-3.3c0.3-0.3,0-0.4-0.1-0.6c-0.2-0.2-0.4-0.3-0.6,0c-1,1.1-2.1,2.1-3.1,3.2
			c-0.1,0.1-0.2,0.3-0.1,0.5C116,71.2,116.1,71.3,116.4,71.4z M102.7,84.8c0.1-0.1,0.2-0.1,0.2-0.1c1.1-1.1,2.2-2.2,3.3-3.4
			c0.2-0.2,0-0.4-0.2-0.6c-0.2-0.2-0.4-0.2-0.6,0c-1,1.1-2.1,2.1-3.1,3.2c-0.2,0.2-0.2,0.4,0,0.6C102.4,84.7,102.6,84.7,102.7,84.8z
			"/>
		<path class="st1" d="M116.1,64.9c-0.1,0.4-0.5,0.6-0.7,0.9c-7,7-14.1,14.1-21.1,21.1c-0.3,0.3-0.5,0.5-0.7,0.8
			c-2.4-0.6-4.8-1-7.2-1c-4.9,0.1-9.4,1.4-13.6,4c-0.2,0.1-0.5,0.3-0.7,0.4c-0.4-0.9-0.2-1.5,0.5-2.2c6.8-6.7,13.6-13.5,20.4-20.3
			c1.2-1.2,2.4-2.4,3.6-3.7C103,64.9,109.6,64.9,116.1,64.9z"/>
		<path class="st4" d="M120.9,136.4c2.4,2.5,4.8,4.9,7.2,7.4c1.9,2,1.9,3.1,0,5c-2,2-4,4-6,6c-1.4,1.4-2.8,1.4-4.2,0
			c-4.5-4.4-8.9-8.9-13.3-13.3c-2-2-2.1-2.9-0.3-5.1c0.3-0.2,0.6-0.4,0.7-0.8c1.6-1.4,3-2.8,4.4-4.4c0.1-0.1,0.3-0.2,0.4-0.3
			c1.9-2.4,4.2-1.9,5.9,0.2C117.3,133.1,119.1,134.7,120.9,136.4z"/>
		<path class="st1" d="M63.9,64.9c9.9,0,19.7,0,29.6,0c-0.1,0.3-0.3,0.5-0.5,0.7c-7.1,7.1-14.3,14.2-21.4,21.3
			c-0.6,0.6-0.8,0.5-1-0.3c-1.9-6.1-3.8-12.1-5.6-18.2C64.5,67.2,63.9,66.1,63.9,64.9z"/>
		<path class="st1" d="M120.9,136.4c-1.7-1.7-3.6-3.3-5.2-5.2c-1.8-2.1-4-2.6-5.9-0.2c-0.1,0.1-0.3,0.2-0.4,0.3
			c-0.9-0.7-1.7-1.6-2.4-2.4c0.9-1.4,1.9-2.7,2.7-4.2c5.2,0,10.4,0,15.6,0c4.9,0,9.7,0,14.6,0c0,1.7,0,3.3,0,5
			c0,3.9-2.8,6.7-6.7,6.7C129,136.4,124.9,136.4,120.9,136.4z"/>
		<path class="st3" d="M63.9,64.9c0.1,1.2,0.6,2.4,1,3.5c1.9,6.1,3.8,12.1,5.6,18.2c0.2,0.7,0.4,0.9,1,0.3
			c7.1-7.1,14.3-14.2,21.4-21.3c0.2-0.2,0.5-0.4,0.5-0.7c1,0,2,0,3,0c-1.2,1.2-2.4,2.5-3.6,3.7c-6.8,6.8-13.6,13.6-20.4,20.3
			c-0.7,0.7-0.9,1.3-0.5,2.2c-1.2,0.9-2.4,1.9-3.6,2.8c-1.1-3.5-2.3-7-3.3-10.6c-0.3-0.9-0.5-0.9-1.1-0.3c-7.6,7.7-15.3,15.3-23,23
			c-0.3,0.3-0.6,0.6-1,0.8c-0.1-1-0.1-1.9,0-2.9c0.4-0.1,0.6-0.4,0.8-0.7c6-6,12-12.1,18.1-18.2c1.4-1.4,2.8-2.9,4.3-4.3
			c0.7-0.6,0.7-1.2,0.4-2c-1.3-4.3-2.6-8.7-3.9-13c-0.1-0.3-0.2-0.6-0.2-1C60.9,64.9,62.4,64.9,63.9,64.9z"/>
		<path class="st1" d="M65.1,127.9c0.6,0.4,0.9,1.1,1.4,1.6c2.3,2.9,5.3,4.9,8.5,6.7c0,0.1,0,0.1-0.1,0.2c-6,0-12,0-18,0
			c0-0.1,0-0.1-0.1-0.1C59.6,133.4,62.4,130.6,65.1,127.9z"/>
		<path class="st1" d="M105,135.6c-0.2,0.3-0.5,0.5-0.7,0.8c-2.3,0-4.5,0-6.8,0c1.6-0.9,3.3-1.7,4.7-2.9c0.2-0.1,0.4-0.2,0.6-0.2
			C103.5,134,104.3,134.8,105,135.6z"/>
		<path class="st5" d="M56.9,136.2c0,0,0,0.1,0.1,0.1c-3.9,0-7.7,0-11.6,0.1c-0.2,0-0.3,0-0.4-0.2c0,0,0,0,0,0
			C48.9,136.2,52.9,136.2,56.9,136.2z"/>
		<path class="st3" d="M127.7,65.3c-0.3-0.3-0.7-0.2-1-0.2c-3,0-6.1,0-9.1,0c-0.3,0-0.7,0.1-1-0.2c3.9,0,7.7,0,11.6,0
			C127.9,65,127.8,65.1,127.7,65.3z"/>
		<path class="st5" d="M74.9,136.4c0-0.1,0-0.1,0.1-0.2c0.1,0.1,0.3,0.1,0.4,0.2C75.2,136.4,75.1,136.4,74.9,136.4z"/>
		<path class="st1" d="M100.8,100.2c1.1,0.8,1.8,2,2.4,3.2c1.8,3.1,2.7,6.5,2.5,10.1c-0.3,6.6-3.2,11.9-8.9,15.5
			c-6.6,0-13.3,0-19.9,0c-0.3,0-0.5-0.1-0.7,0.2c-0.8-0.6-1.7-1.1-2.4-1.9c0.3-0.3,0.6-0.5,0.9-0.8c8.4-8.4,16.9-16.9,25.3-25.3
			C100.2,100.7,100.5,100.4,100.8,100.2z"/>
		<path class="st6" d="M100.8,100.2c-0.3,0.3-0.6,0.5-0.9,0.8c-8.4,8.4-16.9,16.9-25.3,25.3c-0.3,0.3-0.6,0.6-0.9,0.8
			c-3.1-2.6-5-5.9-5.9-9.8c1.4-1.4,2.8-2.8,4.2-4.2c0.3-0.3,0.3-0.5,0.2-0.9c-0.9-2.8-1.8-5.7-2.7-8.6c1-2.1,2.4-3.9,4.2-5.4
			c1,3.3,2,6.6,3,10c4.9-4.8,9.6-9.5,14.3-14.3c3.8,0.8,7,2.8,9.6,5.7C100.8,99.9,100.8,100.1,100.8,100.2z M90.4,103.6
			c-0.1-0.3-0.3-0.5-0.6-0.6c-0.3-0.2-0.5,0.1-0.7,0.3c-1.4,1.4-2.7,2.7-4.1,4.1c-0.3,0.3-0.4,0.6,0,1c0.4,0.4,0.7,0.2,1-0.1
			c1.3-1.3,2.7-2.7,4-4C90.2,104,90.4,103.9,90.4,103.6z M76.9,117.3c0.1,0,0.2,0,0.2-0.1c1.5-1.5,2.9-2.9,4.4-4.4
			c0.3-0.3,0.1-0.5-0.1-0.8c-0.2-0.2-0.5-0.3-0.8-0.1c-1.5,1.4-2.9,2.9-4.3,4.3c-0.2,0.2-0.2,0.4-0.1,0.6
			C76.4,117.1,76.6,117.3,76.9,117.3z"/>
		<path class="st3" d="M56.9,136.2c-4,0-8,0-11.9,0c0-0.3,0.2-0.5,0.4-0.6c5.3-5.3,10.6-10.6,15.9-15.9c0.9,2.9,2.3,5.6,3.9,8.2
			C62.4,130.6,59.6,133.4,56.9,136.2z M59.4,128.1c0-0.3-0.2-0.4-0.4-0.5c-0.2-0.1-0.4,0-0.5,0.1c-1,1-2,2-3,3
			c-0.3,0.3-0.3,0.6,0,0.9c0.3,0.4,0.6,0.2,0.8-0.1c0.9-0.9,1.9-1.9,2.8-2.8C59.3,128.5,59.5,128.4,59.4,128.1z"/>
		<path class="st1" d="M91.1,94.2c-4.7,4.7-9.5,9.4-14.3,14.3c-1-3.4-2-6.7-3-10c1.5-1.6,3.3-2.6,5.3-3.4C83,93.4,87,93,91.1,94.2z"
			/>
		<path class="st3" d="M76.2,129c0.2-0.2,0.5-0.2,0.7-0.2c6.6,0,13.3,0,19.9,0c-2.4,1.8-5.2,2.6-8.1,3C84.2,132.4,80,131.4,76.2,129
			z"/>
		<path class="st1" d="M111,103.6c1,1.7,1.6,3.6,2.3,5.4c1.4,3.5,2.8,7,4.3,10.6c0.1,0.3,0.3,0.5,0.2,0.9c-2.1,0-4.3,0-6.4,0
			c0.4-2,0.9-4,1.1-6.1c0.2-2.7-0.2-5.4-0.7-8C111.5,105.4,110.9,104.6,111,103.6z"/>
		<path class="st1" d="M69.5,103.8c0.9,2.9,1.8,5.7,2.7,8.6c0.1,0.4,0.1,0.6-0.2,0.9c-1.4,1.4-2.8,2.8-4.2,4.2
			c-0.6-1.9-0.7-3.9-0.6-5.8c0.2-2.4,0.8-4.7,1.8-6.9C69.2,104.3,69.4,104.1,69.5,103.8z"/>
		<path class="st1" d="M101.6,91.5c0.9-1,1.9-1.9,2.8-2.9c0.3-0.3,0.5-0.4,0.6,0.1c1.7,4.3,3.4,8.6,5.1,12.9c0,0,0,0.1,0,0.1
			c-0.7-0.5-0.9-1.4-1.3-2.1c-1.8-2.9-4-5.4-6.8-7.5C101.9,91.8,101.7,91.7,101.6,91.5z"/>
		<path class="st7" d="M105,135.6c-0.7-0.8-1.5-1.6-2.2-2.4c0-0.6,0.7-0.7,1-1.1c1-1.1,2.1-2.2,3.1-3.3c0.8,0.8,1.5,1.7,2.4,2.4
			C108,132.8,106.6,134.3,105,135.6z"/>
		<path class="st8" d="M110.2,101.6c0.2,0.1,0.2,0.4,0.2,0.6C110.1,102.1,110.1,101.9,110.2,101.6z"/>
		<path class="st8" d="M110.8,103.1c0.2,0.1,0.2,0.3,0.2,0.5C110.7,103.5,110.8,103.3,110.8,103.1z"/>
		<path class="st8" d="M110.6,102.6c0.2,0.1,0.2,0.3,0.2,0.5C110.6,103,110.5,102.8,110.6,102.6z"/>
		<path class="st8" d="M110.4,102.2c0.2,0.1,0.2,0.2,0.2,0.4C110.4,102.5,110.4,102.4,110.4,102.2z"/>
		<path class="st9" d="M113.3,74.6c-0.1,0.1-0.2,0.3-0.3,0.4c-1,1-2,2-2.9,3c-0.3,0.3-0.5,0.4-0.8,0.1c-0.3-0.3-0.3-0.6,0-0.9
			c1-1,2-2,3-3c0.2-0.2,0.4-0.3,0.6-0.1C113.1,74.2,113.2,74.3,113.3,74.6z"/>
		<path class="st10" d="M116.4,71.4c-0.3,0-0.4-0.2-0.5-0.3c-0.2-0.2-0.1-0.4,0.1-0.5c1-1.1,2.1-2.1,3.1-3.2c0.3-0.3,0.4-0.2,0.6,0
			c0.1,0.2,0.4,0.3,0.1,0.6c-1.1,1.1-2.2,2.2-3.3,3.3C116.5,71.3,116.4,71.3,116.4,71.4z"/>
		<path class="st10" d="M102.7,84.8c-0.1-0.1-0.2-0.2-0.3-0.3c-0.2-0.2-0.2-0.4,0-0.6c1-1.1,2.1-2.1,3.1-3.2c0.2-0.2,0.4-0.2,0.6,0
			c0.2,0.2,0.4,0.4,0.2,0.6c-1.1,1.1-2.2,2.2-3.3,3.4C102.9,84.8,102.8,84.8,102.7,84.8z"/>
		<path class="st9" d="M90.4,103.6c0,0.3-0.2,0.4-0.4,0.6c-1.3,1.3-2.7,2.7-4,4c-0.3,0.3-0.6,0.5-1,0.1c-0.4-0.4-0.3-0.6,0-1
			c1.4-1.3,2.7-2.7,4.1-4.1c0.2-0.2,0.3-0.5,0.7-0.3C90.1,103.1,90.3,103.3,90.4,103.6z"/>
		<path class="st9" d="M76.9,117.3c-0.3,0-0.5-0.2-0.7-0.4c-0.2-0.2-0.1-0.4,0.1-0.6c1.4-1.4,2.9-2.9,4.3-4.3
			c0.3-0.3,0.5-0.2,0.8,0.1c0.2,0.2,0.4,0.5,0.1,0.8c-1.5,1.5-2.9,2.9-4.4,4.4C77.1,117.3,77,117.3,76.9,117.3z"/>
		<path class="st9" d="M59.4,128.1c0,0.3-0.2,0.4-0.3,0.6c-0.9,0.9-1.9,1.9-2.8,2.8c-0.3,0.3-0.5,0.4-0.8,0.1
			c-0.3-0.3-0.3-0.6,0-0.9c1-1,2-2,3-3c0.1-0.1,0.3-0.3,0.5-0.1C59.2,127.7,59.4,127.9,59.4,128.1z"/>
	</g>
</g>
<g id="_x37_fVPgm.tif">
	
		<image style="overflow:visible;" width="468" height="1168" id="Layer_0_00000157306861938231117460000007289281355846552204_" xlink:href="BDCFB8E2DA33575F.png"  transform="matrix(0.1588 0 0 0.1588 -164.3501 -222.0283)">
	</image>
</g>
</svg>
